<svg width="35" height="36" viewBox="0 0 35 36" fill="none" xmlns="http://www.w3.org/2000/svg">
<path d="M-2.38419e-07 18C-2.38419e-07 27.665 7.83502 35.5 17.5 35.5C27.165 35.5 35 27.665 35 18C35 8.33502 27.165 0.500002 17.5 0.500002C7.83502 0.500002 -2.38419e-07 8.33502 -2.38419e-07 18Z" fill="white" fill-opacity="0.4"/>
<path d="M20.6745 9.63595C21.3518 9.15882 22.2875 9.32102 22.7647 9.99825C23.2418 10.6755 23.0796 11.6113 22.4024 12.0884L14.361 17.7539L22.3438 22.8339C23.0427 23.2786 23.2487 24.2058 22.804 24.9047C22.3592 25.6036 21.4321 25.8096 20.7331 25.3648L10.8614 19.0828C10.4392 18.8142 10.1788 18.3528 10.1671 17.8526C10.1553 17.3524 10.3937 16.8793 10.8027 16.5911L20.6745 9.63595ZM1.5 18C1.5 26.8366 8.66344 34 17.5 34C26.3366 34 33.5 26.8366 33.5 18C33.5 9.16345 26.3366 2 17.5 2C8.66344 2 1.5 9.16345 1.5 18Z" stroke="#221E29" stroke-opacity="0.6" stroke-width="3" stroke-linecap="round" stroke-linejoin="round"/>
</svg>
