<svg width="35" height="36" viewBox="0 0 35 36" fill="none" xmlns="http://www.w3.org/2000/svg">
<path d="M35 18C35 27.665 27.165 35.5 17.5 35.5C7.83502 35.5 0 27.665 0 18C0 8.33502 7.83502 0.500002 17.5 0.500002C27.165 0.500002 35 8.33502 35 18Z" fill="white" fill-opacity="0.4"/>
<path d="M14.3255 9.63595C13.6482 9.15882 12.7125 9.32102 12.2353 9.99825C11.7582 10.6755 11.9204 11.6113 12.5976 12.0884L20.639 17.7539L12.6562 22.8339C11.9573 23.2786 11.7513 24.2058 12.196 24.9047C12.6408 25.6036 13.5679 25.8096 14.2669 25.3648L24.1386 19.0828C24.5608 18.8142 24.8212 18.3528 24.8329 17.8526C24.8447 17.3524 24.6063 16.8793 24.1973 16.5911L14.3255 9.63595ZM33.5 18C33.5 26.8366 26.3366 34 17.5 34C8.66344 34 1.5 26.8366 1.5 18C1.5 9.16345 8.66344 2 17.5 2C26.3366 2 33.5 9.16345 33.5 18Z" stroke="#221E29" stroke-opacity="0.6" stroke-width="3" stroke-linecap="round" stroke-linejoin="round"/>
</svg>
