<svg width="78" height="78" viewBox="0 0 78 78" fill="none" xmlns="http://www.w3.org/2000/svg">
<path d="M30.8639 21.8666C30.1867 21.3895 29.2509 21.5517 28.7738 22.2289C28.2966 22.9061 28.4588 23.8419 29.1361 24.3191L49.3057 38.5295L29.1947 51.3274C28.4958 51.7721 28.2897 52.6992 28.7345 53.3982C29.1793 54.0971 30.1064 54.3031 30.8053 53.8583L52.8053 39.8583C53.2274 39.5897 53.4878 39.1283 53.4996 38.6281C53.5114 38.1279 53.2729 37.6548 52.8639 37.3666L30.8639 21.8666ZM76.5 39C76.5 59.7107 59.7107 76.5 39 76.5C18.2893 76.5 1.5 59.7107 1.5 39C1.5 18.2893 18.2893 1.50001 39 1.50001C59.7107 1.50001 76.5 18.2893 76.5 39Z" fill="white" fill-opacity="0.4" stroke="#221E29" stroke-width="3" stroke-linecap="round" stroke-linejoin="round"/>
</svg>
