<svg width="78" height="78" viewBox="0 0 78 78" fill="none" xmlns="http://www.w3.org/2000/svg">
<path d="M47.1361 21.8666C47.8133 21.3895 48.7491 21.5517 49.2262 22.2289C49.7034 22.9061 49.5412 23.8419 48.8639 24.3191L28.6943 38.5295L48.8053 51.3274C49.5042 51.7721 49.7103 52.6992 49.2655 53.3982C48.8207 54.0971 47.8936 54.3031 47.1947 53.8583L25.1947 39.8583C24.7726 39.5897 24.5122 39.1283 24.5004 38.6281C24.4886 38.1279 24.7271 37.6548 25.1361 37.3666L47.1361 21.8666ZM1.5 39C1.5 59.7107 18.2893 76.5 39 76.5C59.7107 76.5 76.5 59.7107 76.5 39C76.5 18.2893 59.7107 1.50001 39 1.50001C18.2893 1.50001 1.5 18.2893 1.5 39Z" fill="white" fill-opacity="0.4" stroke="#221E29" stroke-width="3" stroke-linecap="round" stroke-linejoin="round"/>
</svg>
